<svg width="708" height="271" viewBox="0 0 708 271" fill="none" xmlns="http://www.w3.org/2000/svg">
    <path fill-rule="evenodd" clip-rule="evenodd"
        d="M79.9944 1.0513C96.9108 44.9671 120.362 85.705 149.44 121.676H149.416V127.709L149.464 127.769V146.931C122.883 112.334 101.247 69.4337 85.3823 28.2418L82.2762 20.1778C81.8461 19.0668 80.7709 18.3261 79.5763 18.3261C78.3816 18.3261 77.3064 19.0668 76.8763 20.1778L73.7702 28.2418C57.9051 69.4457 36.2698 112.334 9.68855 146.931V127.805L9.76023 127.709V121.652C38.8264 85.6811 62.2656 44.9671 79.182 1.0513L79.5882 0L79.9944 1.0513ZM126.216 47.4281C126.646 47.2131 127.076 46.9622 127.506 46.6874C131.174 44.2862 133.587 40.1646 134.304 33.9404C134.316 33.809 134.328 33.6776 134.328 33.5462V30.1653C134.328 28.2419 132.775 26.6888 130.852 26.6888C128.928 26.6888 127.375 28.2419 127.375 30.1653V33.3431C126.802 37.9545 125.201 39.9018 123.707 40.8694C121.999 41.9805 119.717 42.315 116.958 42.315H104.796C111.355 55.1098 118.499 67.5462 126.216 79.5765V47.4281ZM145.856 151.698C118.379 116.3 96.1702 72.3367 79.9945 30.3204L79.5883 29.2691L79.1822 30.3204C63.0064 72.3247 40.7977 116.276 13.3205 151.686L25.3507 158.806C45.0387 124.962 61.2981 94.6768 73.8181 59.0281L76.8406 50.4266C77.2468 49.2677 78.3459 48.4912 79.5764 48.4912H79.6242C80.8547 48.4912 81.9418 49.2677 82.36 50.4266L85.3825 59.0281C97.9025 94.6888 114.162 124.973 133.85 158.818L145.88 151.698H145.856ZM144.029 171.243L87.2224 204.789C82.0734 207.823 75.6939 207.823 70.5449 204.789L13.906 171.326C12.8188 170.681 11.4091 170.705 10.4415 171.518C9.27069 172.509 9.07954 174.194 9.9397 175.412L76.2195 268.811C76.8288 269.671 77.8562 270.125 78.8717 270.017C79.911 270.125 80.9265 269.671 81.5358 268.811L147.851 175.412C148.64 174.301 148.544 172.784 147.624 171.78C146.705 170.777 145.199 170.55 144.029 171.243ZM80.6036 168.125C79.9705 168.483 79.1939 168.483 78.5608 168.125H78.5966L78.0471 167.814L39.8537 145.199C55.4321 117.555 68.6809 91.1767 79.2895 60.9517L79.6001 60.0557L79.9107 60.9517C90.5193 91.1767 103.756 117.555 119.347 145.199L81.1532 167.814L80.6036 168.125ZM30.3206 161.757L77.6531 189.784C78.2504 190.142 78.9194 190.334 79.5884 190.369C80.2574 190.322 80.9264 190.142 81.5238 189.784L128.844 161.769C126.586 157.887 124.352 154.04 122.19 150.229L84.0923 172.796C83.9746 172.866 83.855 172.937 83.7337 173.009L83.7277 173.013C82.4344 173.785 80.9507 174.672 79.5765 174.672C78.1929 174.672 76.8278 173.853 75.5778 173.104C75.4031 172.999 75.2306 172.896 75.0606 172.796L36.9629 150.229C34.7886 154.028 32.5665 157.875 30.3086 161.757H30.3206ZM152.259 70.6881C152.259 68.7647 153.812 67.2117 155.736 67.2117L155.748 67.2236C157.588 67.2236 159.081 68.6572 159.2 70.4612V74.4752C158.484 80.6994 156.07 84.821 152.403 87.2223C151.973 87.497 151.543 87.7479 151.113 87.9629C150.599 88.2019 149.44 88.3572 149.44 88.3572V112.37C141.997 102.836 134.949 92.9805 128.306 82.8378H141.914C144.637 82.8259 146.907 82.4914 148.592 81.3923C150.085 80.4246 151.686 78.4773 152.259 73.8659V70.6881ZM9.74844 112.334L9.76039 112.319V112.334H9.74844ZM9.76039 112.319V88.3452C9.76039 88.3452 8.60157 88.1899 8.08786 87.951C7.64584 87.736 7.21576 87.4851 6.79763 87.2103C3.11807 84.809 0.716797 80.6875 0 74.4633V70.4492C0.119466 68.6453 1.52917 67.2117 3.45257 67.2117C5.37598 67.2117 6.92904 68.7647 6.92904 70.6881V73.8659C7.50248 78.4654 9.11527 80.4246 10.5967 81.3923C12.2811 82.4914 14.551 82.8378 17.2748 82.8378H30.8581C24.2194 92.9631 17.1868 102.802 9.76039 112.319ZM32.9726 47.4281C32.5306 47.2131 32.1005 46.9622 31.6824 46.6875C28.0028 44.2862 25.6016 40.1646 24.8848 33.9404C24.8609 33.809 24.8609 33.6776 24.8609 33.5462V30.1653C24.8609 28.2419 26.4139 26.6888 28.3373 26.6888C30.2608 26.6888 31.8138 28.2419 31.8138 30.1653V33.3431C32.3872 37.9425 34 39.9018 35.4814 40.8694C37.1778 41.9805 39.4716 42.315 42.2313 42.315H54.369C47.8223 55.0979 40.6902 67.5224 32.9726 79.5406V47.4281Z"
        fill="#FFB247" />
    <path fill-rule="evenodd" clip-rule="evenodd"
        d="M500.789 129.897V125.85H498.844C497.199 125.85 495.654 124.676 495.654 121.804V98.805H490.814V102.836L490.415 102.449C487.269 99.553 483.104 98.0187 478.83 98.1807C474.557 98.3428 470.521 100.188 467.602 103.314C466.163 104.859 465.043 106.673 464.307 108.653C463.571 110.632 463.234 112.737 463.314 114.847C463.394 116.957 463.891 119.03 464.776 120.948C465.66 122.865 466.914 124.589 468.467 126.02C471.614 128.916 475.779 130.45 480.052 130.288C484.326 130.126 488.362 128.281 491.281 125.155C491.7 126.725 492.636 128.108 493.938 129.081C495.24 130.054 496.832 130.559 498.457 130.515C499.275 130.513 500.078 130.3 500.789 129.897ZM487.9 106.729C489.792 108.814 490.84 111.527 490.842 114.342C490.842 115.836 490.548 117.314 489.977 118.694C488.898 121.294 486.892 123.4 484.347 124.603C481.802 125.806 478.901 126.019 476.207 125.201C473.514 124.384 471.221 122.594 469.773 120.179C468.326 117.765 467.829 114.899 468.378 112.138C468.927 109.377 470.483 106.919 472.743 105.242C475.004 103.565 477.807 102.788 480.609 103.063C483.41 103.338 486.009 104.644 487.9 106.729ZM511.957 83.0964H506.891V130.515H511.957V83.0964ZM453.426 123.2C455.2 120.513 456.143 117.363 456.136 114.143C456.149 110.917 455.209 107.759 453.434 105.066C451.659 102.373 449.128 100.264 446.158 99.0044C443.205 97.7603 439.948 97.4251 436.803 98.0415C433.658 98.658 430.769 100.198 428.504 102.465V82H423.654V129.881H428.504V125.789C430.769 128.056 433.658 129.596 436.803 130.212C439.948 130.829 443.205 130.493 446.158 129.247C449.123 127.991 451.651 125.887 453.426 123.2ZM448.667 106.927C450.353 108.955 451.284 111.505 451.301 114.143C451.303 117.189 450.105 120.113 447.966 122.282C446.103 124.149 443.651 125.313 441.026 125.575C438.402 125.838 435.767 125.184 433.571 123.724C431.374 122.264 429.752 120.088 428.978 117.566C428.205 115.045 428.329 112.333 429.329 109.892C430.329 107.452 432.143 105.433 434.463 104.179C436.784 102.925 439.467 102.514 442.057 103.015C444.646 103.516 446.982 104.898 448.667 106.927ZM386.227 103.458C383.53 106.441 382.039 110.321 382.044 114.342C382.047 116.469 382.468 118.574 383.284 120.538C384.827 124.252 387.696 127.258 391.334 128.974C394.971 130.689 399.116 130.99 402.963 129.818C406.81 128.647 410.084 126.086 412.147 122.634C414.21 119.182 414.916 115.087 414.127 111.143C413.338 107.2 411.11 103.691 407.877 101.3C404.645 98.9079 400.638 97.8041 396.636 98.2031C392.634 98.6021 388.924 100.475 386.227 103.458ZM407.109 107.116C408.775 109.155 409.682 111.709 409.676 114.342C409.666 117.358 408.462 120.248 406.327 122.378C404.461 124.236 402.009 125.39 399.388 125.643C396.767 125.896 394.139 125.232 391.953 123.764C389.766 122.297 388.156 120.117 387.397 117.595C386.638 115.074 386.777 112.367 387.79 109.937C388.803 107.506 390.628 105.502 392.953 104.266C395.278 103.03 397.959 102.638 400.541 103.158C403.122 103.677 405.444 105.076 407.109 107.116ZM357.686 106.125V104.72L333.932 104.813V109.446H352.471C351.781 113.874 349.529 117.908 346.122 120.818C342.715 123.729 338.378 125.323 333.897 125.311C329.416 125.3 325.088 123.685 321.695 120.758C318.302 117.831 316.07 113.785 315.402 109.354C314.618 104.935 315.41 100.381 317.64 96.4851C319.87 92.5897 323.396 89.6003 327.604 88.0382C331.79 86.536 336.375 86.5772 340.534 88.1545C344.692 89.7317 348.151 92.7415 350.288 96.6421L354.504 94.2499C351.684 89.1546 347.082 85.2792 341.581 83.3663C336.08 81.4535 330.067 81.6378 324.694 83.8839C319.308 86.1989 314.937 90.3784 312.384 95.6556C309.831 100.933 309.266 106.954 310.793 112.614C312.244 118.268 315.718 123.193 320.558 126.455C325.398 129.718 331.267 131.091 337.051 130.314C342.838 129.467 348.12 126.547 351.915 122.098C355.711 117.649 357.761 111.973 357.686 106.125ZM372.9 83.0964H367.835V130.515H372.9V83.0964ZM301.867 130.515V83.0964H291.598V102.094H272.555V83.0964H262.252V130.515H272.584V111.362H291.594V130.515H301.867ZM246.55 92.3641H258.21V83.0964H224.709V92.3641H236.447V130.515H246.55V92.3641ZM203.64 102.25V92.2704L221.671 92.2664V83.0964H193.244V130.669H221.665V121.483H203.64V111.515H219.088V102.25H203.64ZM449.225 233.15C427.375 233.15 414.955 217.97 414.955 193.475C414.955 169.44 428.755 153.8 451.64 153.8C472.225 153.8 484.76 164.84 484.76 182.55V183.355H471.65V182.55C471.65 170.935 465.785 165.76 451.065 165.76C434.85 165.76 428.18 173.465 428.18 193.475C428.18 213.485 435.08 221.19 452.1 221.19C466.245 221.19 472.915 217.05 472.915 204.975V203.135H448.88V192.44H484.875V232H473.49V219.925H473.03C470.155 226.94 462.105 233.15 449.225 233.15ZM230.24 232H193.44V154.95H228.86C243.925 154.95 253.01 161.16 253.01 174.155C253.01 183.125 247.95 189.22 238.06 190.715V191.635C249.79 193.13 255.77 200.72 255.77 210.84C255.77 223.95 246.455 232 230.24 232ZM205.86 166.105V186.92H227.71C237.025 186.92 240.705 184.39 240.705 176.57C240.705 168.635 237.37 166.105 228.055 166.105H205.86ZM205.86 197.27V220.845H229.895C239.21 220.845 243.235 218.2 243.235 209.115C243.235 199.915 239.21 197.27 229.895 197.27H205.86ZM271.108 232H258.113L288.128 154.95H305.953L335.968 232H322.513L314.693 211.99H278.928L271.108 232ZM291.348 180.48L283.298 200.835H310.323L302.273 180.48L297.328 166.22H296.408L291.348 180.48ZM341.121 232H353.541V175.995H354.346L391.836 232H405.176V154.95H392.756V211.415H391.836L383.671 199.11L354.461 154.95H341.121V232ZM497 232H509.42V199.8H527.475L547.255 232H561.515L537.71 193.13L561.63 154.95H547.485L527.245 187.84H509.42V154.95H497V232ZM596.73 233.15C574.765 233.15 560.735 217.51 560.735 193.475C560.735 169.44 574.765 153.8 596.73 153.8C618.58 153.8 632.61 169.44 632.61 193.475C632.61 217.51 618.58 233.15 596.73 233.15ZM596.73 221.19C612.715 221.19 619.385 213.485 619.385 193.475C619.385 173.465 612.715 165.76 596.73 165.76C580.745 165.76 573.96 173.465 573.96 193.475C573.96 213.485 580.745 221.19 596.73 221.19ZM642.546 232H654.966V199.8H673.021L692.801 232H707.061L683.256 193.13L707.176 154.95H693.031L672.791 187.84H654.966V154.95H642.546V232Z"
        fill="white" />
</svg>