<svg width="1000" height="1000" viewBox="0 0 1000 1000" fill="none" xmlns="http://www.w3.org/2000/svg">
    <circle cx="500" cy="500" r="500" fill="#892BE1" />
    <path
        d="M529.045 100C576.452 100 620.3 106.334 660.582 118.989C700.879 131.65 736.435 148.042 767.252 168.159C798.062 188.261 822.16 209.86 839.547 232.948L756.591 314.527C724.992 286.225 690.217 262.949 652.283 244.698C614.364 226.433 573.284 217.301 529.045 217.301C472.934 217.301 422.153 229.6 376.717 254.192C331.297 278.77 295.548 312.105 269.486 354.202C243.416 396.286 230.385 444.134 230.385 497.759C230.385 550.646 244.206 598.688 271.848 641.9C299.505 685.111 336.443 719.385 382.653 744.722C428.879 770.045 479.254 782.699 533.77 782.699C573.284 782.699 610.414 775.432 645.166 760.899C679.933 746.365 708.188 726.443 729.924 701.121C751.659 675.805 762.527 646.758 762.527 613.973C762.527 610.243 762.527 608.008 762.527 607.263H526.653V487.708H894.064C895.637 498.886 897.017 510.058 898.199 521.23C899.395 532.409 900 543.581 900 554.752C900 595.723 893.473 635.941 880.42 675.422C867.382 714.903 847.049 749.17 819.406 778.217C787.807 815.47 746.912 845.088 696.729 867.062C646.561 889.016 591.063 900 530.226 900C470.172 900 414.076 889.761 361.922 869.29C309.783 848.798 263.963 820.308 224.449 783.813C184.935 747.304 154.31 704.657 132.574 655.877C110.853 607.082 100 554.376 100 497.759C100 441.148 110.853 388.825 132.574 340.782C154.31 292.726 184.728 250.642 223.829 214.516C262.944 178.398 308.587 150.284 360.741 130.181C412.895 110.065 468.991 100 529.045 100Z"
        fill="white" />
    <g filter="url(#filter0_d_312_113)">
        <circle cx="846" cy="724" r="60" fill="#10B981" />
    </g>
    <path
        d="M843.727 739.611H826.228L821.953 747.89H810L835.249 701H848.472L857.155 747.89H845.064L843.727 739.611ZM842.39 730.928L839.656 713.561L830.702 730.928H842.39Z"
        fill="white" />
    <path d="M881.999 701L873.72 747.89H862.297L870.576 701H881.999Z" fill="white" />
    <defs>
        <filter id="filter0_d_312_113" x="782" y="664" width="128" height="128" filterUnits="userSpaceOnUse"
            color-interpolation-filters="sRGB">
            <feFlood flood-opacity="0" result="BackgroundImageFix" />
            <feColorMatrix in="SourceAlpha" type="matrix" values="0 0 0 0 0 0 0 0 0 0 0 0 0 0 0 0 0 0 127 0"
                result="hardAlpha" />
            <feOffset dy="4" />
            <feGaussianBlur stdDeviation="2" />
            <feComposite in2="hardAlpha" operator="out" />
            <feColorMatrix type="matrix" values="0 0 0 0 0 0 0 0 0 0 0 0 0 0 0 0 0 0 0.25 0" />
            <feBlend mode="normal" in2="BackgroundImageFix" result="effect1_dropShadow_312_113" />
            <feBlend mode="normal" in="SourceGraphic" in2="effect1_dropShadow_312_113" result="shape" />
        </filter>
    </defs>
</svg>