<svg width="655" height="171" viewBox="0 0 655 171" fill="none" xmlns="http://www.w3.org/2000/svg">
<path d="M104.083 67.4997C101.417 62.5986 97.5885 58.8486 92.6042 56.2497C87.6302 53.6559 81.7813 52.3538 75.0625 52.3538C63.4219 52.3538 54.0938 56.1768 47.0833 63.8122C40.0833 71.4528 36.5833 81.6559 36.5833 94.4163C36.5833 108.015 40.2604 118.635 47.625 126.271C54.9844 133.911 65.1094 137.729 78 137.729C86.8333 137.729 94.2969 135.489 100.396 131C106.49 126.515 110.943 120.062 113.75 111.646H68.125V85.1663H146.333V118.583C143.667 127.557 139.146 135.896 132.771 143.604C126.396 151.312 118.297 157.552 108.479 162.312C98.6719 167.078 87.6042 169.458 75.2708 169.458C60.6875 169.458 47.6771 166.271 36.25 159.896C24.8333 153.521 15.9375 144.661 9.5625 133.312C3.1875 121.953 0 108.989 0 94.4163C0 79.833 3.1875 66.833 9.5625 55.4163C15.9375 43.9893 24.7969 35.083 36.1458 28.708C47.5052 22.333 60.4792 19.1455 75.0625 19.1455C92.7135 19.1455 107.604 23.4268 119.729 31.9788C131.854 40.5205 139.88 52.3643 143.813 67.4997H104.083Z" fill="#892BE1"/>
<path d="M276.885 107.875C276.885 111.239 276.677 114.739 276.26 118.375H194.885C195.453 125.667 197.802 131.245 201.927 135.104C206.063 138.953 211.146 140.875 217.177 140.875C226.146 140.875 232.385 137.094 235.885 129.521H274.156C272.198 137.229 268.656 144.167 263.531 150.333C258.417 156.5 252.01 161.344 244.302 164.854C236.594 168.354 227.974 170.104 218.448 170.104C206.948 170.104 196.708 167.656 187.74 162.75C178.766 157.833 171.76 150.823 166.719 141.708C161.677 132.599 159.156 121.948 159.156 109.75C159.156 97.5571 161.641 86.9061 166.615 77.7915C171.583 68.6821 178.557 61.6769 187.531 56.7707C196.5 51.8696 206.807 49.4165 218.448 49.4165C229.792 49.4165 239.885 51.8019 248.719 56.5623C257.552 61.328 264.453 68.1248 269.427 76.9582C274.396 85.7915 276.885 96.0988 276.885 107.875ZM240.094 98.3957C240.094 92.229 237.99 87.328 233.781 83.6873C229.573 80.0519 224.313 78.229 218.01 78.229C211.979 78.229 206.896 79.979 202.76 83.479C198.635 86.979 196.078 91.953 195.094 98.3957H240.094Z" fill="#892BE1"/>
<path d="M367.284 49.833C381.018 49.833 391.982 54.2861 400.18 63.1872C408.388 72.0934 412.492 84.3226 412.492 99.8747V168.416H376.742V104.708C376.742 96.8643 374.706 90.7653 370.638 86.4163C366.581 82.0726 361.117 79.8955 354.242 79.8955C347.378 79.8955 341.914 82.0726 337.846 86.4163C333.773 90.7653 331.742 96.8643 331.742 104.708V168.416H295.805V51.1038H331.742V66.6455C335.393 61.4684 340.305 57.3695 346.471 54.3538C352.638 51.3434 359.576 49.833 367.284 49.833Z" fill="#892BE1"/>
<path d="M455.585 38.8958C449.262 38.8958 444.106 37.0417 440.106 33.3333C436.117 29.6146 434.127 25.0208 434.127 19.5625C434.127 13.9531 436.117 9.29167 440.106 5.58333C444.106 1.86458 449.262 0 455.585 0C461.752 0 466.825 1.86458 470.814 5.58333C474.814 9.29167 476.814 13.9531 476.814 19.5625C476.814 25.0208 474.814 29.6146 470.814 33.3333C466.825 37.0417 461.752 38.8958 455.585 38.8958ZM473.439 51.1042V168.417H437.502V51.1042H473.439Z" fill="#892BE1"/>
<path d="M610.104 107.875C610.104 111.239 609.896 114.739 609.479 118.375H528.104C528.672 125.667 531.021 131.245 535.146 135.104C539.281 138.953 544.365 140.875 550.396 140.875C559.365 140.875 565.604 137.094 569.104 129.521H607.375C605.417 137.229 601.875 144.167 596.75 150.333C591.635 156.5 585.229 161.344 577.521 164.854C569.813 168.354 561.193 170.104 551.667 170.104C540.167 170.104 529.927 167.656 520.958 162.75C511.984 157.833 504.979 150.823 499.938 141.708C494.896 132.599 492.375 121.948 492.375 109.75C492.375 97.5571 494.859 86.9061 499.833 77.7915C504.802 68.6821 511.776 61.6769 520.75 56.7707C529.719 51.8696 540.026 49.4165 551.667 49.4165C563.01 49.4165 573.104 51.8019 581.938 56.5623C590.771 61.328 597.672 68.1248 602.646 76.9582C607.615 85.7915 610.104 96.0988 610.104 107.875ZM573.313 98.3957C573.313 92.229 571.208 87.328 567 83.6873C562.792 80.0519 557.531 78.229 551.229 78.229C545.198 78.229 540.115 79.979 535.979 83.479C531.854 86.979 529.297 91.953 528.313 98.3957H573.313Z" fill="#892BE1"/>
<g filter="url(#filter0_d_309_71)">
<circle cx="618.5" cy="32.5" r="32.5" fill="#10B981"/>
</g>
<path d="M625.297 17.8228L624.211 24.3983H611.257L610.081 31.7506H619.771L618.685 38.0802H608.99L606.728 52.0033H598.98L604.596 17.8228H625.297Z" fill="white"/>
<path d="M632.595 22.0119C631.385 22.0119 630.427 21.6634 629.718 20.9651C629.009 20.2679 628.654 19.3827 628.654 18.3117C628.654 16.8523 629.182 15.6028 630.239 14.5631C631.295 13.5247 632.578 13.0049 634.09 13.0049C635.298 13.0049 636.25 13.3546 636.945 14.0518C637.638 14.7501 637.986 15.651 637.986 16.7534C637.986 18.1814 637.456 19.4152 636.397 20.4537C635.34 21.4933 634.073 22.0119 632.595 22.0119ZM635.948 24.839L631.509 52.0049H623.762L628.201 24.839H635.948Z" fill="white"/>
<defs>
<filter id="filter0_d_309_71" x="582" y="0" width="73" height="73" filterUnits="userSpaceOnUse" color-interpolation-filters="sRGB">
<feFlood flood-opacity="0" result="BackgroundImageFix"/>
<feColorMatrix in="SourceAlpha" type="matrix" values="0 0 0 0 0 0 0 0 0 0 0 0 0 0 0 0 0 0 127 0" result="hardAlpha"/>
<feOffset dy="4"/>
<feGaussianBlur stdDeviation="2"/>
<feComposite in2="hardAlpha" operator="out"/>
<feColorMatrix type="matrix" values="0 0 0 0 0 0 0 0 0 0 0 0 0 0 0 0 0 0 0.25 0"/>
<feBlend mode="normal" in2="BackgroundImageFix" result="effect1_dropShadow_309_71"/>
<feBlend mode="normal" in="SourceGraphic" in2="effect1_dropShadow_309_71" result="shape"/>
</filter>
</defs>
</svg>
